/* XPM */
static char *b2f1e8c3ccd74177baa7703ddfaad9b3Hes2Z4OceMIRDT3Z[] = {
/* columns rows colors chars-per-pixel */
"50 50 77 1 ",
"  c #ECDCB8",
". c #EADAB6",
"X c #E0D1AF",
"o c #E9D9B5",
"O c #E6D6B3",
"+ c #DFD1AF",
"@ c #DFD0AE",
"# c #E4D5B2",
"$ c #E1D2B0",
"% c #DFD0AF",
"& c #E0D2AF",
"* c #E3D4B1",
"= c #E2D3B0",
"- c #DED0AE",
"; c #E9D9B6",
": c #EDDDB8",
"> c #E8D8B5",
", c #EBDBB7",
"< c #E7D7B4",
"1 c #D7CAA8",
"2 c #D9CBAA",
"3 c #E5D5B3",
"4 c #EDDDB9",
"5 c #E4D4B1",
"6 c #E5D6B3",
"7 c #E8D9B5",
"8 c #DACCAA",
"9 c #D7C9A8",
"0 c #D8CAA9",
"q c #DDCEAC",
"w c #E4D4B2",
"e c #DBCDAB",
"r c #E8D8B4",
"t c #E2D3B1",
"y c #E2D2B0",
"u c #DCCDAC",
"i c #DDCFAD",
"p c #E1D1AF",
"a c #E5D5B2",
"s c #E1D2AF",
"d c #DECFAD",
"f c #D6C8A7",
"g c #DCCDAB",
"h c #EBDCB8",
"j c #EADBB7",
"k c #DCCEAC",
"l c #E3D3B1",
"z c #F2E1BD",
"x c #F1E0BC",
"c c #F3E2BE",
"v c #EEDEBA",
"b c #D6C8A8",
"n c #F0E0BC",
"m c #F4E2BE",
"M c #F4E3BF",
"N c #E7D8B4",
"B c #EDDCB8",
"V c #ECDBB8",
"C c #EADAB7",
"Z c #E8D9B6",
"A c #E6D7B4",
"S c #E7D8B5",
"D c #E9DAB6",
"F c #E3D4B2",
"G c #EBDAB7",
"H c #E0D0AF",
"J c #EBDBB8",
"K c #E6D6B4",
"L c #E0D2B0",
"P c #EEDDB9",
"I c #EFDEBA",
"U c #EFDFBB",
"Y c #E5D4B2",
"T c #E0D1AE",
"R c #DDCFAC",
"E c #ECDCB7",
"W c white",
/* pixels */
"       .XXXXXXXXXXXXXXXXXXXXXXXXXXXXXXXXXXo       ",
"       O+XXXXXXXXXXXXXXXXXXXXXXXXXXXXXXX@#        ",
"       $XXXXXXXXXXX%&*=XXXXXXXXX-+XXXXXXX;:       ",
"      >XXXXXXXXXXX#., <@XXXXXXX-12@XXXX%3         ",
"     45XXXXXXXXXXX64 47@XXXXXXX8990qXXX$,         ",
"     .$XXXXXXXXXX%w4 4;XXXXXXXe99990XX@r:         ",
"    4<%XXXXXXXXXX%t:  .yXXXXXXu9999ip@a           ",
"     #@XXXXXXXXXXX$aw=sXXXXXXXXd0fgp%*h           ",
"    j$XXXXXXXXXXXXXXXXXXXXXXXXXX@kXX=j            ",
"   :>@XXXXXXXXXXXXXXXXXXXXXXXXXXX$Xs.             ",
"    *XXXXXX@028e@XXXXXXXXXXXXXXXX+y;      44      ",
"   .XXXXXXsdf999dXXXXXXXXXXXXXXX@lj:     4zz4     ",
"  4#XXXXXXsdf990-XXXXXXXXXXXXXX@a,       xcczv    ",
"  .sXXXXXXXkf9b0@XXXXXXXXXXXX+p<        nmccMx    ",
" 4#%XXXXXXXiee8eXXXXXXXXXXXXX*.:        4zccz4    ",
":oXXXXXXXXXXXXXXXXXXXXXXXX@=N            Bxz4     ",
"Vl%XXXXXXXXXXXXXXXXXXXXX%t<,4              4      ",
"6XXXXXXXXXXXXXXXXXXX+XXlr,B                       ",
"XXXXXXXXXXXXXXXXX%%X=OC              4           Z",
"XXXXXXXXXXXXXXX@$wA7 4              C<,4       4.$",
"XXXXXXXXXXXXXX*SC 44                O@=3D      ,tX",
"XXXXXXXXXX@$#; B             4x4    =XX@#:   :,lXX",
"XXXXXXXX+XFD4              h4zMz   >XXXX<4  :GtXXX",
"XXXXXXX+=>B                vccccx  >$@%$,  :DyHXXX",
"XXXXXXXa,                  4zcccz4  ,>l#   AXXXXXX",
"XXXXXXr                     4ccx4       4jaXXXXXXX",
"XXXX$D:                      vn       4J<$%XXXXXXX",
"XXX$.4CC:                             Nt@XXXXXXXXX",
"XXy.4 #XA                        4 JS=X+XXXXXXXXXX",
"XXD  <XX@*C                   :4J.KyXXXXXXXXXXXXXX",
"X>B oXXXXXo                 4,;A*X@XXXXXXXXXXXXXXX",
"AB  ,wXX@O4               ,7#=s@@XXXXXXXXXXXXXXXXX",
"      AX5             : C6$XXXXXXXXXXXXXXXXXXXXXXy",
"      B.C            4DaX+XXXXXXXXXXXXXXXXXXXXXXXo",
"                   B,6L@XXXXXXXXXXXXXXXXXXXXXXX@a ",
"         P4        7=%XXXXXXXXXXXXXXXXXXXXXXXXX$C ",
"      4Ixcx       6XXXXXXXXXXXXXXXXXXXXXXXXXXXXO4 ",
"      4cccz    :,5@XXXXXXXXXXXXXXXXXXXXXXXXXXX$,  ",
"       xcccv  B,t@XXXXXXXXXXXXXXXXXXXXy=sXXXXXO4  ",
"       vczU4 :j=XXXXXXXXXXXXXXXXXXXXX@o , OXXX,   ",
"        4    jtXXXXXXXXXXXXXXXXXXXXXXp.4 46X%a    ",
"             *%XXXXXXXXXXXXXXXXXXXXXXs.: :YXTo4   ",
"            3@XXXXXXXXX@iXXXXXXXXXXXX=G  4l@t,    ",
"          :N@XXXXXXXX@k09iXXXXXXXXXXXXylwa$@O4    ",
"          ,$XXXXXXXXX2f992XXXXXXXXXXXXXXX+XX>4    ",
"          #%XXXXXXXXXk9999iXXXXXXXXXXXXXXXXy,     ",
"        :>XXXXXXXXXXX+0b90RXXXXXXXXXXXXXXX+F4     ",
"        El%XXXXXXXXXXXk0u+XXXXXXXXXXXXXXXXX<:     ",
"       :NXXXXXXXXXXXXXX+sXXXXXXXXXXXXXXXXX$,      ",
"       ,l%XXXXXXXXXXXXXXXXXXXXXXXXXXXXXXXXa       "
};
