/* XPM */
static char *_eb15795d0954b7da07ad7f276a82bc9bWsWtiWCiPBYBOMt[] = {
/* columns rows colors chars-per-pixel */
"50 50 116 2 ",
"   c None",
".  c #522F06",
"X  c #523007",
"o  c #543209",
"O  c #583710",
"+  c #5A3912",
"@  c #5E3E18",
"#  c #5F401B",
"$  c #62431F",
"%  c #634521",
"&  c #664925",
"*  c #694C29",
"=  c #6C502F",
"-  c #6D5130",
";  c #745A3B",
":  c #7A6246",
">  c #7D6549",
",  c #80694E",
"<  c #826B51",
"1  c #867158",
"2  c #8A755E",
"3  c #8B7760",
"4  c #8F7C66",
"5  c #927F6A",
"6  c #93816C",
"7  c #968471",
"8  c #9E8F7E",
"9  c #A29383",
"0  c #AA9E91",
"q  c #ADA296",
"w  c #B3A99F",
"e  c #AFAFAF",
"r  c #B5ACA2",
"t  c #BBB3AB",
"y  c #AFB0B0",
"u  c #B2B2B2",
"i  c #BFB9B2",
"p  c #BCBCBC",
"a  c #C1BBB6",
"s  c #C2BFBD",
"d  c #C6C1BE",
"f  c #DDBDDC",
"g  c #EE9FEE",
"h  c #E5AEE5",
"j  c #EDA2ED",
"k  c #EAA8E9",
"l  c #E2B4E1",
"z  c #E2BAE2",
"x  c #F1ADF1",
"c  c #F2B7F2",
"v  c #F3BCF3",
"b  c #C3C3C3",
"n  c #C9C5C2",
"m  c #CCC9C7",
"M  c #CDCBCB",
"N  c #D1CFCF",
"B  c #D2D1CF",
"V  c #D8C5D7",
"C  c #D4CCD3",
"Z  c #D8CFD6",
"A  c #DAC2D9",
"S  c #D2D0D0",
"D  c #D9D7D7",
"F  c #DBDBDB",
"G  c #F6CDF6",
"H  c #F7D4F7",
"J  c #F6DDF5",
"K  c #F8D6F8",
"L  c #F8D5F8",
"P  c #F9DCF9",
"I  c gray88",
"U  c #E1E0E0",
"Y  c #E1E1E1",
"T  c #E2E0E0",
"R  c #E2E1E1",
"E  c #E3E1E1",
"W  c #E2E2E2",
"Q  c #E3E2E2",
"!  c #E4E4E4",
"~  c gray90",
"^  c #E6E5E5",
"/  c #E7E6E6",
"(  c #E7E7E7",
")  c #E8E7E7",
"_  c #E9E8E8",
"`  c #E9E9E9",
"'  c #EAEAEA",
"]  c gray93",
"[  c #EEEEEE",
"{  c #FAE1FA",
"}  c #FBE6FB",
"|  c #FBE9FB",
" . c #FBEBFB",
".. c #F1F0F0",
"X. c #F1F1F1",
"o. c gray95",
"O. c #F3F2F2",
"+. c #F3F3F3",
"@. c #F4F4F4",
"#. c #F7F5F6",
"$. c gray97",
"%. c #F7F8F6",
"&. c #FDF2FD",
"*. c #F8F8F8",
"=. c #F9F8F8",
"-. c #F9F9F9",
";. c gray98",
":. c #FEF9FE",
">. c #FEFAFE",
",. c gray99",
"<. c #FDFDFD",
"1. c #FEFCFE",
"2. c #FFFDFF",
"3. c #FEFEFE",
"4. c #FEFFFF",
"5. c white",
/* pixels */
"  S B C B S S S S B S S S S S S S S N S S S S S S S S S S S S S S S S S S N S S S S S S S S S S S   ",
"S S S S B S S S S S S S S S S S S S S S S S S S S S N S S S S S S S S S S S S S S S S S S S S S S S ",
"S S S S S N S B S S B C C B N S S S S S S S S S S S S S S S S S S S S S S S S S N N S C S S S S S S ",
"S S S S S B B C S S B B B B N S S S S S N S S S S S S S S S S S S S S S S S S S S B B B S S S S S S ",
"S S S S S S S S S S S S S S S S S S S S S S S S S S S S S S S N S S S S S S S S S N S S S S S S S S ",
"S S S S S S S S S S S S S S S S S S N S S S S S S S S S S S S S N S S S S S S S S S S S S S S S S S ",
"S S S S S S S S S S S S S S S S S S S S S S S S S S S S S S S S B S S S S S S S S S S S S S S S S S ",
"S S S S S S N S S S S S S S S S S S S S S S S S S N S S S S S S S S S S S S S N S S S S S S S N S S ",
"S N S S S S S S S S S S S S S S S S N S S S S S S S S S S S S S S S S B B S S S S S S S S S S S S S ",
"S S S S S S S S S S S S S S S S S S S S S S S S S S S S S S S N S S B C S S S S S S S S S S S S S S ",
"S S S S S S S B S N S S S S S S S S S S S S S S S S S S S S S S S S S S S S B B S S S S C B S S S S ",
"S S S S N S S S S S S S S S S S S S S S S S S S S S S S S S S S S S S S S S C B S S S N B B S S S S ",
"S S S S S S S S S S S S S S S S S S S S S S S S S S S S S S S S S S S S S S S S S S S N S S S S S S ",
"S S S S S S S S S S S S S S S S S S S S N N S N S S S S S S S S S S S S S S S S S S S S N S S S S S ",
"S S S N S S S S S S S M n M S S N S S S B B S S S S S S N S S S S S B B S n n S S S S S S S S S S S ",
"S S S S S S S S S S r > * ; 9 S S S S S C B S S S S S S S S S S S S S s 3 - - 6 n S S S S S S S S S ",
"S S S S S S S S S t & . X . O 9 S S S S S S S S S S S S S S S S S S m > X X X X 1 m S B S S S S S S ",
"S S S S S S S S M , . o o o X * s S S S S S S S S S S S S S S S S S 8 o o X o X + q S S S S S S S S ",
"S S S S S S S S t $ o o o o o o 9 S S S S S S S S S S B S S S S S m ; . o o o o X < N S S S S S S S ",
"S S S S S S S S 0 o o o o o o . 2 S B S S S S S B B B S S S S B C a % o o o o o o - n S S S S S S S ",
"S S C S S S S D 9 o o o o o o . < S S S S C V A f f f V C C S B S t # o o o o o X * d S S S S S S S ",
"S S S B S S B S r + X o o o o X 7 S S S A l j j g g j g k f C S S n - . o o o o . : m S S S S S S N ",
"S S S S S S S N N 6 + X X . o > d S S A j g g g g j g g g g l C S S 0 % X . o . * r C S S S S S S S ",
"S S S S S S S B B M q 1 > > 9 n S S S z g g g g g g g g g g k C S S S t 4 : > 6 i B B B S S S S S S ",
"S S S S S B C B S S S S B N S S B S S z g g g g g g j g g g k Z S S S S S B M S S S S S S S S S S S ",
"S S S S S S N B S S S S S S S D ) @.-.J j g g g g g g g g g v @.o.( D S S S S S S S S S S S S S S S ",
"B S S S S S N S S S S S S S Y *.2.2.2.>.c g g g g g g g g j { 2.2.2.*.Y S S S S S S N S S S S S S S ",
"S S S S S S S S N N N M S Y 2.2.2.2.2.2.} x g j g g g g j G 2.2.2.2.2.2.Y S B B N N S S S S S S S S ",
"S S S S S S M p p p p p s S ( @.2.2.2.2.2. .v j g g j x L 2.2.2.2.4.X.~ S p p p p p p S N S S S S S ",
"S S S S S S M p y y y y y y u p I 2.2.2.2.2.2.} L H P &.2.2.2.2.2.S u u y y y u y y p N S S S S S S ",
"S S S S S S N p p p p s b p u u Y 2.2.2.2.2.2.2.2.2.2.2.2.2.2.2.4.D y u p m p p s p p S S S B C S S ",
"S S S S S S S S S N B D -.-.' F %.2.2.2.2.2.2.2.2.2.2.2.2.2.2.2.4.@.F ] ;.;.D S N S S S N N B S B S ",
"S S S S S S S S S S N S W D S S [ 2.2.2.2.2.2.2.2.2.2.2.2.2.2.2.2.` N S F W D S S S S S S S S S S S ",
"S S S S S S S S N M p p u y y y Y 2.2.2.2.2.2.2.2.2.2.2.2.2.2.2.2.D y y y u u b M S S S S S S S S S ",
"S S S S S S S N b u u u y p b b ] 2.2.2.2.2.2.2.2.2.2.2.2.2.2.2.2.Y b b p u y u u M S S S S S S S S ",
"S S S S S S S S b y u p S @.;.4.2.2.2.2.2.2.2.2.2.2.2.2.2.2.2.2.2.4.4.-.@.S p u u b S S S S S S S S ",
"S S S S S S S S N b m S D X.2.2.2.2.2.2.2.2.2.2.@.@.2.2.2.2.2.2.2.2.2.2.o.S B b b M S S S S S S S S ",
"S S S S S S S S N N N S N D X.2.2.2.2.2.2.2.2.o.b p X.2.2.2.2.2.2.2.2.[ D S B S S S S S S S S S S S ",
"S S N S S S S S S S S S S S S ' -.2.2.2.2.*.I p u y s I *.2.2.2.4.*.( D S S S S S S S S S S S S N S ",
"S S S S S S S S S S S S S S S S D Y W ( F s u y u y y u M Y ( ~ I D S S S S S S S S S S S S S S B B ",
"S S S S S S S S S S S S S S S S S C B M N b u u u y u p M S M B N S S N S S S S S S S S S S S S B C ",
"S S S N S S S S N S S S S S S S S S B B S S M b p b M S S S S S S S S S S S S S S S S S S S S S S S ",
"S S S S S S S S S S S S S S S S S S S S S S S S S S S S S S S S S S S S S S S S S S S S S S S S S S ",
"S S S S S S S S S S S S S N S S S S S S S S S S S S S S S S S S S S S S S S N B S S S S S S S S S S ",
"S S S S S S N S S S S S S S S S S S S S S S S S S S S S S S S S S S S S S S S B S S S S S S S S S S ",
"S S S S S S S S S S S N S S S S S S S S S S S S S S S S S S S S S S S S S S C B S S S S S S S S S S ",
"S S S S S S S S S S S S S S S S S S S S S S S S S S S S S S S S S S S S S S S S S S S S S S S S S S ",
"S N S S S S S S S S S S S S S S S S S S S S S S S S S S S S S N S S S S S S S S S S S S S S S S S S ",
"S S S S S S S S S S S S S S S S S S S S S S S S S S S S S S S S S N S S S S S S S S S S S N S S S S ",
"  S S S S S S S S S S S S S S S S S S S S S S S S S S S S S S S S S S S S S S S S S S S S S S S S   "
};
