/* XPM */
static char *e27d75aece234b80c0578d684f010ff77ySZmgF7n2wtwGfM[] = {
/* columns rows colors chars-per-pixel */
"50 50 181 2 ",
"   c None",
".  c #C15610",
"X  c #C05711",
"o  c #C25610",
"O  c #C15712",
"+  c #C15713",
"@  c #C25712",
"#  c #C25713",
"$  c #C15812",
"%  c #C15813",
"&  c #C25812",
"*  c #C25813",
"=  c #C35813",
"-  c #C35913",
";  c #C55913",
":  c #C75912",
">  c #C65A13",
",  c #C25914",
"<  c #C35A15",
"1  c #C45914",
"2  c #C45B17",
"3  c #C55C17",
"4  c #C75C16",
"5  c #C95B13",
"6  c #CC5C12",
"7  c #C85B14",
"8  c #CA5C14",
"9  c #CB5C14",
"0  c #CC5D14",
"q  c #CD5D14",
"w  c #CE5E14",
"e  c #CF5E14",
"r  c #D05E14",
"t  c #D15F14",
"y  c #D05E15",
"u  c #D25F14",
"i  c #C8601C",
"p  c #D46015",
"a  c #D66014",
"s  c #D96214",
"d  c #DA6315",
"f  c #DB6315",
"g  c #DB6415",
"h  c #DF6515",
"j  c #DD6516",
"k  c #DF6516",
"l  c #DF6616",
"z  c #E06616",
"x  c #E16616",
"c  c #E26716",
"v  c #E36716",
"b  c #E46816",
"n  c #E56816",
"m  c #E56817",
"M  c #E66917",
"N  c #E76917",
"B  c #E76A17",
"V  c #E86916",
"C  c #E86A16",
"Z  c #E86A17",
"A  c #E96A17",
"S  c #E76B19",
"D  c #E06A1C",
"F  c #E26B1D",
"G  c #E86A18",
"H  c #E86B18",
"J  c #E86B19",
"K  c #E96C1A",
"L  c #E86D1C",
"P  c #E96D1C",
"I  c #E96E1C",
"U  c #E96E1D",
"Y  c #EA6E1D",
"T  c #E96F1E",
"R  c #EA6F1E",
"E  c #C06020",
"W  c #C76626",
"Q  c #C3682B",
"!  c #CF6A28",
"~  c #D06B29",
"^  c #DE7F3F",
"/  c #E36D20",
"(  c #E06E22",
")  c #E87020",
"_  c #EA7020",
"`  c #EA7121",
"'  c #EB7323",
"]  c #E97325",
"[  c #EB7324",
"{  c #EC7324",
"}  c #EB7425",
"|  c #EB7526",
" . c #E1742B",
".. c #EC7729",
"X. c #ED792B",
"o. c #ED792C",
"O. c #ED7A2E",
"+. c #EE7C31",
"@. c #EE7E34",
"#. c #EF7E34",
"$. c #EF7F36",
"%. c #E67D38",
"&. c #BD7A4A",
"*. c #F08138",
"=. c #F08239",
"-. c #F1853D",
";. c #BE9879",
":. c #E08041",
">. c #EA8744",
",. c #F18740",
"<. c #F28943",
"1. c #F28B45",
"2. c #F48D48",
"3. c #F48F4B",
"4. c #F4904C",
"5. c #F5904D",
"6. c #F5914E",
"7. c #F6924F",
"8. c #E98D50",
"9. c #E89255",
"0. c #F59250",
"q. c #F69351",
"w. c #F29557",
"e. c #F79656",
"r. c #F79757",
"t. c #F0975A",
"y. c #F79858",
"u. c #F49B5F",
"i. c #F8995A",
"p. c #F89C5D",
"a. c #FA9D5F",
"s. c #F59D62",
"d. c #F99F62",
"f. c #F99F63",
"g. c #FBA368",
"h. c #FCA56B",
"j. c #FCA66C",
"k. c #FCA76D",
"l. c #FDA76D",
"z. c #FCA76E",
"x. c #FCA86E",
"c. c #FDA86E",
"v. c #FDA86F",
"b. c #B6A490",
"n. c #B3B0A5",
"m. c #B6B3A8",
"M. c #B7B4A8",
"N. c #B8B5A8",
"B. c #BABAAF",
"V. c #BEBBAF",
"C. c #C1A88F",
"Z. c #DCA981",
"A. c #ECB183",
"S. c #ECC29E",
"D. c #C3C0B3",
"F. c #C9C7BA",
"G. c #CBC8BB",
"H. c #DECEB9",
"J. c #E2C1A3",
"K. c #D5D1C3",
"L. c #D9D6C7",
"P. c #DDDACC",
"I. c #DEDACC",
"U. c #EED8C0",
"Y. c #E9DDCB",
"T. c #E2DED0",
"R. c #E3DFD1",
"E. c #E6E2D3",
"W. c #E6E2D4",
"Q. c #E8E4D5",
"!. c #E8E5D6",
"~. c #E9E5D6",
"^. c #E9E5D7",
"/. c #EBE7D8",
"(. c #EDE9DA",
"). c #EEEADC",
"_. c #EFEBDC",
"`. c #EFECDD",
"'. c #F0ECDD",
"]. c #F0EDDE",
"[. c #F0EDDF",
/* pixels */
"                                                                                                    ",
"                                                                                                    ",
"                                                                                                    ",
"                                                                                                    ",
"                                                                                                    ",
"                                                                                                    ",
"                                                                                                    ",
"                                                                                                    ",
"                                                                                                    ",
"                                                                                                    ",
"                                                                                                    ",
"                                            O , % % % % O                                           ",
"                                      = O 1 9 0 u r u u 0 1 % %                                     ",
"                                    O ; u j c b m S b b b j u 5 ,                                   ",
"                                O ; u j Z Z Z Z b J J Z Z Z Z f 7 O                                 ",
"                              O % r m J Z Z Z Z Y -.#.J Z Z Z Z c 0 %                               ",
"                              O r b Z Z Z Z Z Z #.l.r.` b Z Z Z Z z q O                             ",
"                            O q b Z Z { o.Y Z Z } y.3.Y Z Z Z Z Z Z s ;                             ",
"                          = = f Z Z } i.g.y...Z Z Y J Z Z Z Z Z Z Z m 5 %                           ",
"                          O q Z Z Z *.l.k.k.3.Z Z Z Z Z Z Z Z Z Z Z Z r %                           ",
"                          1 s Z Z Z *.l.l.k.5.Z H H A A Z Z { 2.0.#.I r %                           ",
"                          1 ( Y Z Z ..d.k.l.<.Z b A A b Z Z -.l.v.d. .; %                           ",
"                        = 3 w.q.o.J J #.3.1.Y Z A A A H b I 5.c.u.:.i O                             ",
"                        , 4 s.k.e.Y Z Z Z Z J Z A A A A A S %.:.~ 1 O                               ",
"                          1 t.k.a.{ Z Z Z Z Z I S ` X.Y s 9 3 % O                                   ",
"                          , ~ 8.>.D c j z z ( 9.A.S.H.Z.Q i X                                       ",
"                            , , O O % ; O o W J.[.`.`.Y.C.b.                                        ",
"                                          &.;.H.[.`.`.(.G.M.                                        ",
"                                            B.P.'.'.'.(.K.M.                                        ",
"                                            V.T.'.(.'.'.P.M.                                        ",
"                                            D.~.'.(.(.'.E.n.                                        ",
"                                            G.(.'.'.`.`.~.                                          ",
"                                            L.'.'.(.'.'./.                                          ",
"                                            ~.'.).'.'.(.(.                                          ",
"                                              W./.~.~.R.                                            ",
"                                                                                                    ",
"                                                                                                    ",
"                                                                                                    ",
"                                                                                                    ",
"                                                                                                    ",
"                                                                                                    ",
"                                                                                                    ",
"                                                                                                    ",
"                                                                                                    ",
"                                                                                                    ",
"                                                                                                    ",
"                                                                                                    ",
"                                                                                                    ",
"                                                                                                    ",
"                                                                                                    "
};
