/* XPM */
static char *_4cbb7119c654e61af946bb22d53312bG2YSn75rXDhvZWsm[] = {
/* columns rows colors chars-per-pixel */
"50 50 197 2 ",
"   c None",
".  c #3E2514",
"X  c #3B261B",
"o  c #3E291D",
"O  c #252525",
"+  c #2A2624",
"@  c #2A2827",
"#  c #272829",
"$  c #2C2D2D",
"%  c #352D29",
"&  c #322924",
"*  c #35332D",
"=  c #3C312A",
"-  c #3E3926",
";  c #363331",
":  c #3B3632",
">  c #3E3833",
",  c #531B0F",
"<  c #452613",
"1  c #492615",
"2  c #452A16",
"3  c #4A2B16",
"4  c #442C1B",
"5  c #4B2C1A",
"6  c #502F1B",
"7  c #5F2014",
"8  c #47321C",
"9  c #4B331B",
"0  c #4C3B1C",
"q  c #53331E",
"w  c #59331D",
"e  c #692718",
"r  c #702819",
"t  c #7E2B1B",
"y  c #4D3524",
"u  c #4C3C23",
"i  c #42352D",
"p  c #44392D",
"a  c #4D3A2A",
"s  c #453524",
"d  c #543321",
"f  c #5C3621",
"g  c #543C24",
"h  c #5D3A23",
"j  c #533E2A",
"k  c #593D2D",
"l  c #443C35",
"z  c #4A3D33",
"x  c #483F39",
"c  c #423730",
"v  c #503D31",
"b  c #633422",
"n  c #633D26",
"m  c #713021",
"M  c #4D411F",
"N  c #54421D",
"B  c #67491F",
"V  c #454223",
"C  c #464C23",
"Z  c #494E25",
"A  c #45442C",
"S  c #4E432E",
"D  c #47482A",
"F  c #4B4C2B",
"G  c #534124",
"H  c #5E4226",
"J  c #52442B",
"K  c #5E442B",
"L  c #554D2E",
"P  c #5B482F",
"I  c #4B5226",
"U  c #4D5128",
"Y  c #51562B",
"T  c #555B2C",
"R  c #595E2E",
"E  c #535526",
"W  c #4A4533",
"Q  c #4E4A33",
"!  c #4D433B",
"~  c #45423F",
"^  c #524236",
"/  c #5B4535",
"(  c #524D34",
")  c #5B4A34",
"_  c #52453C",
"`  c #5A4739",
"'  c #544B3B",
"]  c #5A4E3D",
"[  c #4F5031",
"{  c #555432",
"}  c #595434",
"|  c #5B5B34",
" . c #5B533C",
".. c #5D583B",
"X. c #65442F",
"o. c #6B432B",
"O. c #72452C",
"+. c #744A2F",
"@. c #784C2F",
"#. c #644532",
"$. c #634A37",
"%. c #6C4D36",
"&. c #654D3A",
"*. c #6B4B36",
"=. c #744D34",
"-. c #7B4E32",
";. c #615234",
":. c #63553C",
">. c #635B3C",
",. c #735137",
"<. c #7D5135",
"1. c #795C37",
"2. c #74533B",
"3. c #7B543B",
"4. c #7D583B",
"5. c #755B30",
"6. c #5C612E",
"7. c #5D6332",
"8. c #646633",
"9. c #636935",
"0. c #68683A",
"q. c #726335",
"w. c #716C3F",
"e. c #6E7034",
"r. c #727638",
"t. c #3F3F40",
"y. c #414243",
"u. c #554A41",
"i. c #5B4D42",
"p. c #5E5141",
"a. c #5F5F5F",
"s. c #505152",
"d. c #635543",
"f. c #665B41",
"g. c #6A5B44",
"h. c #66594B",
"j. c #6F6843",
"k. c #726249",
"l. c #706547",
"z. c #757340",
"x. c #686969",
"c. c #6F7068",
"v. c #707570",
"b. c #822C1B",
"n. c #835433",
"m. c #8C5633",
"M. c #835C32",
"N. c #8E5935",
"B. c #875739",
"V. c #855A3B",
"C. c #8C5C3A",
"Z. c #925C35",
"A. c #935E3A",
"S. c #836536",
"D. c #8C633B",
"F. c #83693A",
"G. c #87683D",
"H. c #95613C",
"J. c #9A643C",
"K. c #936B3E",
"L. c #9C693E",
"P. c #996137",
"I. c #A0673C",
"U. c #A36B3F",
"Y. c #8B5E41",
"T. c #835E45",
"R. c #925E40",
"E. c #956341",
"W. c #9A6542",
"Q. c #946A40",
"!. c #9D6A45",
"~. c #9D6943",
"^. c #9E6748",
"/. c #9F6B49",
"(. c #89734B",
"). c #9F7444",
"_. c #827553",
"`. c #8B7955",
"'. c #A56E42",
"]. c #A66F45",
"[. c #A36D44",
"{. c #A86F41",
"}. c #A26D48",
"|. c #A36D49",
" X c #A67047",
".X c #AA7245",
"XX c #A67149",
"oX c #A97349",
"OX c #AC764B",
"+X c #AB744A",
"@X c #AE794B",
"#X c #B27A4B",
"$X c #7D8140",
"%X c #A78F3A",
"&X c #80847D",
"*X c #C69E4C",
"=X c #868686",
/* pixels */
"                                                                                                    ",
"                                                                                                    ",
"                                                                                                    ",
"                                X.. 2 N E U U D Z A {  .                                            ",
"                              3 2 g  .0 M Y { Y F Q  .g.k.i.                                        ",
"                            ) c.9  .v.2 0 T { >.W ' u.p.g.d.! ! ! i.                                ",
"                          8 ) &Xu 4 g 0 ( i.' :.= l _ ^ _ i.l i.i.d.g.]                             ",
"                        P y ] g q G } V p d 8 3 < < 1 1 3 2 o l u.i.g.k.p.                          ",
"                        G y h.a d ) Y 2 < < < 1 3 5 3 3 1 < < < q / i.d.d.                          ",
"                      Z U V u ' z 8 0 < 6 =.V.n.!.}.-.B.Z.=.b 6 < < d z l x _ !                     ",
"                      D F Y ' z 3 3 G =.J.#XOX~.@X Xn.J.{.L.Z.H.h 5 < 2 = _ u.d.g.                  ",
"                    D F { g.i 3 3 h 1. XH.OXoXXXoX'.Z.A.'.L.P.W.C.A.q < 3 z i.d.k.]                 ",
"                    W Q  .` 1 3 -.Z.F.C.B.|.|.oXXX'.J.Z.'.'.P.E.!.}.W.f < 3 _ i.k.g.                ",
"                    W Q x 2 3 O.].].Q.Q.Z.}.W.#X}.~.J.A.L..XP.].OX~.oXC.f < 5 _ d.k.p.              ",
"                  ' W W o < o.E.'. Xq. X~.!.R.@X}..XL.Z.Z..XL.[.@XZ.|.J.C.6 1 a _ i.!               ",
"                W ' >.S < w n.H.!.U.S.Q.W.~.E.oX~..XJ.Z.P.'..XW.OXZ.].~.oXY.3 1 = l l               ",
"                ! i.>.4 1 V.'.E.W.J.S.q.F.W.J.OXL.].A.A.E..X.X[.XXZ.XXW. XoXO.< X _ d.p.            ",
"                ! :.( < w !.!.W.W.Z.K.q.F.W.Z.L.W.].Z.N.E..X'.~.^.A.}.~.].oXB.1 1 ! u.k.            ",
"                ! } a < p T.XX~.'.N.[./ 1.!.m.Z.!.].Z.Z.[..X'.J.J.Z.[.~.A.}.W.h < z _ p.            ",
"              * W l o < + > $.=.,.` %.; = C.m.m.].|.m.L.U..X'.W.A.A.].J.Z.W.~.<.< y i.! l           ",
"              Q d._ 2 4 @ # O O @ O O O O ! m.Z.I.^.m.I.U..XU.~.Z.'.|.L.A.R.~.E.1 5 _ _ x           ",
"              ' p.d.5 X $ l #.=.#.` 2.; % V.m.m.I.g.X.].{.{.U.~.A.'.|.[.'.Z.~.R.3 < l i.d.          ",
"              Q g.g.3 4 $.Y.Z.A.Z.E.XX2.V.}.H.N.<.l : :.C..XI.].A.].[.[..XZ.A.W.5 < _ h._           ",
"              > >.` < d J.E.N.C.Z.Z.oXXX~.H.[.<.l s.x.> k '.U.~.N.[.}.[.OXJ.A.[.5 2 ! d.i.          ",
"                A > < f L.C.Z.W.A.J.OXOX[.R.~./ ; a.=X~ z A.[.~.A.A.].[.OX[.m.R.5 < x ! k.i.        ",
"                i.) 1 h L.N.J.J.Z.A.#XoX[.R.W.[.~ t.y.x B.I.[.~.{.Z.[.R.|.R.m.R.5 < ! i.g. .        ",
"              _ d.>.9 4 &.B.J.L.m.H.XX2.B.R.R.OX3.x > g.U.J.I.W.U.Z.[.[.XX^.m.C.1 o ! u.i.          ",
"              u.] g.g 2 * l %.C.X.&.3.> = Y.R.XX[.R.=.A.U.L.].W.R.Z.|.R.OXR.A.n.< 4 l !             ",
"                _ p.) 2 + # @ @ @ O @ O O _ [.[.oX|.A.N.U.{..XE.R.A.|.[.|.J.L.n < k h.i.            ",
"                l ! z 1 X * / ,.#.v $.; % V.[.|.|.].[.N.I.{.'.W.}.A.[.[.[.J.B.3 < _ ] >.'           ",
"                  x d.k 2 K C.~.P.<.+.&.=.].I.XX|..X~.N.m.L.I.[.^.A.[.[.|.~.o.< = ! _ ( F           ",
"                  ] k.>.9 3 <.~.W.O.f W.[.I.[.}.XXOXI.Z.m.Z.A.XXXX[.|.W.OXC.1 < % u.] Q C           ",
"                  ] #.O.w 3 n W.!.H.n.XXP.H.'.W.OXoXL.A.Z.m.Z.W.oX}.oXW.W.y < o _ u.' D C           ",
"                D u m b.t b 3 -. XoXoXXXN.H.}.oXOXoXI.U.J.m.N.E.|.}.XXC.d < < i i.d.F C C           ",
"                Z 2 e e n s 9 3 N.oXOX}.C.~.L.oXXXoXZ.{.U.N.H.W.XXoXQ.H < < % > _ u.| Y C           ",
"                  0 f y (...L M 6 D.*X@XM.K.U.oX|..XA.'.{.J.L.~.OX~.K 0 < = ' ' W Q 8.8.            ",
"                  C C D `._...) < B %XK.m.q.~.|.}.|.N.K.U..X[.C.+.q 0 8 & l  .' w.6.Z C             ",
"                  C C V >.`.( L S g 9 w w X.o.V.D.E.5.S.N.C.X.3 2 < 0 l ! W { T 9.E C C             ",
"                    C 6.z.0.Q [ } g.- . 2 3 < 4 d H g 9 1 1 < 2 8 a ( d.l.>.Y E I I C C             ",
"                    C Y | Y { Y | ( W Q S G 9 9 3 9 3 3 , r b j i.d.}  .{ T R I I C C               ",
"                    Z C C Y 6.7.6.Y { | | } p.| ;.} L s #.3.k ' _ ( | 0.7.9.R I C C C               ",
"                      C C U T 6.e.9.7.6.| }  .{ ....} ' l._...{ [ T { 7.e.e.I I C C                 ",
"                        C Z I I e.6.7.6.R 7.0.7.7.{ | ..| z.e.T 6.T Y Y E I C C C                   ",
"                        C C C I I I Y Y R T 7.7.7.7.T 7.7.r.$XT I I C I C C C C                     ",
"                          C C Z I C I I I I R r.Y 6.Y T Y T Y I Z Z Z C C C                         ",
"                                C C C C C C U R C I Z Z C I I Z Z C                                 ",
"                                    C C C C C C C C Z C C C C C C                                   ",
"                                                                                                    ",
"                                                                                                    ",
"                                                                                                    "
};
