/* XPM */
static char *_e5964cdba0c475daa04097cfc92d5339XEWwkt4fYhsyZHU[] = {
/* columns rows colors chars-per-pixel */
"50 50 166 2 ",
"   c gray13",
".  c black",
"X  c #020303",
"o  c #9B978D",
"O  c #D0CABC",
"+  c gray9",
"@  c #222222",
"#  c #100D07",
"$  c #3D341D",
"%  c #3F361E",
"&  c #3F351E",
"*  c #3F351D",
"=  c #15120A",
"-  c #030201",
";  c #342C18",
":  c #40361E",
">  c #43391F",
",  c #B89D5C",
"<  c #DDBE70",
"1  c #544728",
"2  c #3E341D",
"3  c #272112",
"4  c #231E10",
"5  c #EBC76F",
"6  c #F4CE73",
"7  c #F3CE73",
"8  c #F2CD72",
"9  c #544727",
"0  c #0B0905",
"q  c #C7A85E",
"w  c #F6D074",
"e  c #F5CF73",
"r  c #FBD476",
"t  c #FCD576",
"y  c #F3CD73",
"u  c #F8D175",
"i  c #998148",
"p  c #867240",
"a  c #F7D175",
"s  c #FDD577",
"d  c #FCD577",
"f  c #574929",
"g  c #0C0A05",
"h  c #CEAE61",
"j  c #FFD778",
"k  c #FFD979",
"l  c #9F864B",
"z  c #8B7742",
"x  c #CDAE61",
"c  c #FED778",
"v  c #FBD477",
"b  c #FFD879",
"n  c #9E864A",
"m  c #8B7642",
"M  c #F6D175",
"N  c #584A29",
"B  c #CFB162",
"V  c #FFDB7A",
"C  c #FFDC7B",
"Z  c #A0884C",
"A  c #8C7843",
"S  c #292213",
"D  c #9C854A",
"F  c #A28A4D",
"G  c #A2894C",
"H  c #A2894D",
"J  c #A1894C",
"K  c #382F1A",
"L  c #070603",
"P  c #84703E",
"I  c #A48B4D",
"U  c #A48C4E",
"Y  c #665630",
"T  c #594C2A",
"R  c #010100",
"E  c #020100",
"W  c #010000",
"Q  c #241E11",
"!  c #897541",
"~  c #8E7943",
"^  c #907B45",
"/  c #4E4325",
"(  c #907B44",
")  c #907A44",
"_  c #746237",
"`  c #060503",
"'  c #312A17",
"]  c #8E7843",
"[  c #F6D174",
"{  c #FFD878",
"}  c #CFB062",
"|  c #9E864B",
" . c #3E351D",
".. c #F0CB71",
"X. c #F9D275",
"o. c #FDD677",
"O. c #9C844A",
"+. c #FBD576",
"@. c #CBAB60",
"#. c #0B0A05",
"$. c #564828",
"%. c #FAD376",
"&. c #F8D275",
"*. c #141109",
"=. c #4E4224",
"-. c #514426",
";. c #504426",
":. c #524526",
">. c #2C2615",
",. c #322B17",
"<. c #514526",
"1. c #42371F",
"2. c #030301",
"3. c #1C170D",
"4. c #504325",
"5. c #5F502D",
"6. c #D9B867",
"7. c #CCAD60",
"8. c #594B2A",
"9. c #040402",
"0. c #120F08",
"q. c #121008",
"w. c #17130B",
"e. c #0F0D07",
"r. c #131009",
"t. c #16130A",
"y. c #1F1A0E",
"u. c #C3A55C",
"i. c #AE9452",
"p. c #18140B",
"a. c #0A0905",
"s. c #352D19",
"d. c #D4B464",
"f. c #D4B364",
"g. c #D3B364",
"h. c #493E22",
"j. c #0A0804",
"k. c #AD9352",
"l. c #D6B665",
"z. c #DBB967",
"x. c #D9B766",
"c. c #D7B666",
"v. c #85713F",
"b. c #756438",
"n. c #D8B766",
"m. c #F5D074",
"M. c #CFAF62",
"N. c #FED677",
"B. c #FED678",
"V. c #FFDA7A",
"C. c #A0874B",
"Z. c #8B7743",
"A. c #FCD477",
"S. c #FCD476",
"D. c #FDD778",
"F. c #AF9553",
"G. c #8D7843",
"H. c #5F512D",
"J. c #E5C26C",
"K. c #302916",
"L. c #D2B263",
"P. c #F9D376",
"I. c #BFA25A",
"U. c #FDD678",
"Y. c #232323",
"T. c white",
/* pixels */
"  . . . . . . . . . . . . . . . . . . . . . . . . . . . . . . X o O + . . . . . . . . . . . . . . @ ",
". # $ % & & & & & & & & & & & & & & * = - ; : & & & & & & & * > , < 1 2 & : 3 . 4 : & & & & % $ # . ",
". $ 5 6 7 7 7 7 7 7 7 7 7 7 7 7 7 7 8 9 0 q w 7 7 7 7 7 7 7 7 e r t w y 7 u i . p a 7 7 7 7 6 5 $ . ",
". % 6 s d d d d d d d d d d d d d d r f g h j d d d d d d d d d d d d d d k l . z k d d d d s 6 % . ",
". & 7 d d d d d d d d d d d d d d d r f g x c d d d d d d d d d d d d d v b n . m b d d d d d 7 & . ",
". & 7 d d d d d d d d d d d d d d d r f g x c d d d d d d d d d d d d d v b n . m b d d d d d 7 & . ",
". & 7 d d d d d d d d d d d d d d d r f g x c d d d d d d d d d d d d d v b n . m b d d d d d 7 & . ",
". & 7 d d d d d d d d d d d d d d d r f g x c d d d d d d d d d d d d d v b n . m b d d d d d 7 & . ",
". : M k b b b b b b b b b b b b b b c N g B V b b b b b b b b b b b b b b C Z . A C b b b b k M : . ",
". S D F G G G G G G G G G G G G G H J K L P I G G G G G G G G G G G G G G U Y . T U G G G G F D S . ",
". . . . . . . . . R E W . . . . . . . . . . . . . . . . . R R . . . . . . . . . . . . . . . . . . . ",
". Q ! ~ ~ ~ ~ ~ ^ / . T ( ~ ~ ~ ~ ~ ~ ~ ~ ~ ~ ~ ~ ~ ~ ) _ ` ' ] ~ ~ ~ ~ ~ ~ ~ ~ ~ ~ ~ ~ ~ ~ ~ ! Q . ",
". : [ b { { { { C A . Z C { { { { { { { { { { { { { { V } g N c { { { { { { { { { { { { { { b [ : . ",
". & 7 d r r r r b m . n b r r r r r r r r r r r r r r c x g f r d r r r r r r r r r r r r r d 7 & . ",
". & 7 d d d d d b m . n b v d d d d d d d d d d d d d c x g f r d d d d d d d d d d d d d d d 7 & . ",
". & 7 d d d d d b m . n b v d d d d d d d d d d d d d c x g f r d d d d d d d d d d d d d d d 7 & . ",
". & 7 d d d d d b m . n b v d d d d d d d d d d d d d c x g f r d d d d d d d d d d d d d d d 7 & . ",
". % 7 d d d d d b m . | b d d d d d d d d d d d d d d j h g f r d d d d d d d d d d d d d d d 7 % . ",
".  ...X.X.X.X.X.o.! . O.o.X.X.X.X.X.X.X.X.X.X.X.X.X.X.+.@.#.$.u X.%.d d %.&.X.X.X.X.X.X.X.X.X... .. ",
". *.=.-.;.;.;.;.:.>.. ,.:.;.;.;.;.;.;.<.:.-.;.;.;.;.;.<.1.2.3.;.4.5.6.7.8.4.-.:.-.;.;.;.;.;.-.=.*.. ",
". 9.0.q.q.q.q.q.0.*.w.*.0.q.q.q.q.q.q.` . e.r.q.q.q.q.q.r.t.= q.0.y.u.i.p.0.#.. a.r.q.q.q.q.q.0.9.. ",
". s.x d.f.f.f.f.f.f.f.f.f.f.f.f.f.f.g.h.j.k.l.f.f.f.f.f.f.f.f.f.f.z.&.w x.c.v.. b.n.f.f.f.f.d.x s.. ",
". : m.j c c c c c c c c c c c c c c o.N g M.k c c c c c c c c c c N.d d B.V.C.. Z.V c c c c j m.: . ",
". & 7 d d d d d d d d d d d d d d d r f g x c d d d d d d d d d d d d d v b n . m b d d d d d 7 & . ",
". & 7 d d d d d d d d d d d d d d d r f g x c d d d d d d d d d d d d d v b n . m b d d d d d 7 & . ",
". & 7 d d d d d d d d d d d d d d d r f g x c d d d d d d d d d d d d d v b n . m b d d d d d 7 & . ",
". & 7 d d d d d d d d d d d d d d d r f g x c d d d d d d d d d d d d d v b n . m b d d d d d 7 & . ",
". : m.j c c c c c c c c c c c c c c o.N g M.k c c c c c c c c c c c c c c V.C.. Z.V c c c c j m.: . ",
". s.x d.f.f.f.f.f.f.f.f.f.f.f.f.f.f.g.h.j.k.l.f.f.f.f.f.f.f.f.f.f.f.f.f.f.n.v.. b.n.f.f.f.f.d.x s.. ",
". 9.0.q.q.q.q.q.0.*.w.*.0.q.q.q.q.q.q.` . e.r.q.q.q.q.q.r.t.= q.q.q.q.q.q.r.#.. a.r.q.q.q.q.q.0.9.. ",
". *.=.-.;.;.;.;.:.>.. ,.:.;.;.;.;.;.;.<.:.-.;.;.;.;.;.<.1.2.3.;.;.;.;.;.;.;.-.:.-.;.;.;.;.;.-.=.*.. ",
".  ...X.X.X.X.X.o.! . O.o.X.X.X.X.X.X.X.X.X.X.X.X.X.X.+.@.#.$.u X.X.X.X.X.X.X.X.X.X.X.X.X.X.X... .. ",
". % 7 d d d d d b m . | b d d d d d d d d d d d d d d j h g f r d d d d d d d d d d d d d d d 7 % . ",
". & 7 d d d d d b m . n b v d d d d d d d d d d d d d c x g f r d d d d d d d d d d d d d d d 7 & . ",
". & 7 d d d d d b m . n b v d d d d d d d d d d d d d c x g f r d d d d d d d d d d d d d d d 7 & . ",
". & 7 d d d d d b m . n b v d d d d d d d d d d d d d c x g f r d d d d d d d d d d d d d d d 7 & . ",
". & 7 d r r r r b m . n b r r A.d S.r r r r r r r r r c x g f r d r r r r r r r r r r r r r d 7 & . ",
". : [ b { { { { C A . Z C { { D.d c { { { { { { { { { V } g N c { { { { { { { { { { { { { { b [ : . ",
". Q ! ~ ~ ~ ~ ~ ^ / . T ( ~ ~ q u F.G.~ ~ ~ ~ ~ ~ ~ ~ ) _ ` ' ] ~ ~ ~ ~ ~ ~ ~ ~ ~ ~ ~ ~ ~ ~ ~ ! Q . ",
". . . . . . . . . R E W . . . H.J.K.. . . . . . . . . . . R R . . . . . . . . . . . . . . . . . . . ",
". S D F G G G G G G G G G G F L.P.I.Z K L P I G G G G G G G G G G G G G G U Y . T U G G G G F D S . ",
". : M k b b b b b b b b b b b U.d c c N g B V b b b b b b b b b b b b b b C Z . A C b b b b k M : . ",
". & 7 d d d d d d d d d d d d d d d r f g x c d d d d d d d d d d d d d v b n . m b d d d d d 7 & . ",
". & 7 d d d d d d d d d d d d d d d r f g x c d d d d d d d d d d d d d v b n . m b d d d d d 7 & . ",
". & 7 d d d d d d d d d d d d d d d r f g x c d d d d d d d d d d d d d v b n . m b d d d d d 7 & . ",
". & 7 d d d d d d d d d d d d d d d r f g x c d d d d d d d d d d d d d v b n . m b d d d d d 7 & . ",
". % 6 s d d d d d d d d d d d d d d r f g h j d d d d d d d d d d d d d d k l . z k d d d d s 6 % . ",
". $ 5 6 7 7 7 7 7 7 7 7 7 7 7 7 7 7 8 9 0 q w 7 7 7 7 7 7 7 7 7 7 7 7 7 7 u i . p a 7 7 7 7 6 5 $ . ",
". # $ % & & & & & & & & & & & & & & * = - ; : & & & & & & & & & & & & & & : 3 . 4 : & & & & % $ # . ",
"@ . . . . . . . . . . . . . . . . . . . . . . . . . . . . . . . . . . . . . . . . . . . . . . . . Y."
};
